<?xml version="1.0" standalone="no"?>
<!DOCTYPE svg PUBLIC "-//W3C//DTD SVG 20010904//EN"
 "http://www.w3.org/TR/2001/REC-SVG-20010904/DTD/svg10.dtd">
<svg version="1.0" xmlns="http://www.w3.org/2000/svg"
 width="600.000000pt" height="480.000000pt" viewBox="0 0 600.000000 480.000000"
 preserveAspectRatio="xMidYMid meet">

<g transform="translate(0.000000,480.000000) scale(0.100000,-0.100000)"
fill="#000000" stroke="none">
<path d="M2830 4279 c-273 -24 -384 -76 -421 -198 -18 -59 -23 -273 -9 -387
15 -127 10 -137 -80 -174 -37 -14 -72 -36 -84 -53 -25 -34 -33 -134 -17 -217
9 -46 9 -65 0 -82 -7 -13 -14 -72 -15 -138 -2 -94 -6 -116 -18 -118 -11 -2
-16 4 -16 23 0 19 -7 28 -27 36 -38 14 -117 2 -149 -24 -24 -18 -26 -25 -22
-73 3 -33 12 -62 23 -74 15 -16 15 -20 3 -20 -8 0 -25 -12 -39 -26 -27 -29
-27 -29 -12 -285 7 -123 11 -150 27 -168 26 -29 91 -44 154 -37 l52 6 0 -43
c0 -59 23 -90 64 -85 l32 4 -4 -56 c-6 -76 13 -137 54 -178 28 -28 40 -33 63
-29 27 6 30 3 37 -26 10 -50 39 -82 96 -108 l53 -24 470 0 470 0 53 24 c60 27
89 58 98 106 l6 33 94 4 c90 3 95 4 125 35 27 26 32 39 33 82 1 50 1 51 33 51
39 0 89 40 98 78 3 15 -3 93 -15 172 -26 187 -26 217 1 239 15 12 23 32 26 68
5 46 3 54 -26 83 -17 18 -31 40 -31 48 0 8 -10 30 -21 49 -19 30 -21 48 -20
121 1 49 11 118 22 157 42 151 12 250 -79 270 -34 7 -34 7 -27 51 14 97 -31
154 -124 154 -32 0 -62 5 -69 12 -8 8 -12 63 -12 181 0 198 -17 401 -36 438
-17 33 -70 55 -182 74 -194 33 -427 42 -632 24z m375 -89 c204 -10 295 -24
339 -54 43 -28 58 -99 63 -305 5 -153 3 -183 -8 -179 -21 7 -65 102 -78 167
-6 32 -20 67 -31 78 -28 31 -115 60 -217 74 -112 15 -412 6 -508 -15 -99 -22
-186 -68 -236 -124 l-41 -47 4 116 c5 148 21 182 98 222 65 32 169 55 300 66
52 5 100 9 105 9 6 1 100 -3 210 -8z m15 -255 c190 -11 220 -31 220 -148 -1
-40 -6 -85 -13 -101 -11 -25 -12 -17 -12 65 0 114 -3 116 -107 65 -58 -29 -92
-38 -168 -46 -52 -5 -135 -14 -185 -19 -49 -5 -103 -15 -120 -22 -28 -12 -24
-13 62 -19 50 -3 95 -9 99 -13 4 -4 -3 -7 -15 -7 -12 0 -59 -15 -105 -34 -92
-38 -194 -63 -219 -53 -10 4 -17 17 -17 29 0 13 -7 45 -15 72 -8 27 -15 71
-15 98 0 41 5 54 29 79 30 30 34 31 136 34 33 1 89 9 125 18 64 15 88 15 320
2z m-645 -237 c14 -46 29 -89 34 -97 6 -9 4 -22 -5 -36 -15 -24 -7 -66 16 -80
6 -4 95 -8 198 -8 160 -2 193 -5 227 -21 22 -10 64 -22 93 -27 58 -8 204 3
271 21 45 12 58 31 105 163 10 26 22 47 27 47 16 0 9 -62 -16 -144 -14 -45
-30 -107 -36 -139 -10 -54 -48 -117 -70 -117 -5 0 -9 17 -9 38 0 50 -29 82
-75 82 -46 0 -75 -37 -75 -98 l0 -45 -132 6 c-73 4 -159 3 -190 -1 l-58 -9
-25 68 c-28 72 -36 79 -94 79 -64 0 -99 -46 -92 -120 3 -28 -60 55 -94 125
-42 87 -54 140 -55 233 0 64 16 162 26 162 2 0 15 -37 29 -82z m-70 -263 c27
-79 72 -158 126 -218 27 -30 49 -60 49 -67 0 -6 9 -23 20 -38 19 -25 20 -40
18 -167 l-3 -139 -80 80 c-80 79 -168 198 -200 272 l-18 39 -37 -21 c-78 -42
-135 20 -135 149 0 116 21 144 120 160 54 9 60 16 87 93 l22 67 7 -80 c4 -44
15 -102 24 -130z m1171 92 c23 -25 29 -27 68 -22 57 9 83 -6 96 -54 26 -98
-35 -198 -114 -189 l-34 4 -16 -66 c-35 -142 -133 -288 -233 -347 -52 -30 -63
-23 -63 42 0 36 5 45 43 77 60 50 133 160 162 245 25 70 49 210 41 235 -3 7
-7 45 -10 83 l-6 70 21 -25 c11 -14 32 -38 45 -53z m-256 43 c0 -27 -14 -28
-417 -35 -312 -6 -353 -5 -353 9 0 8 6 18 13 23 15 10 244 19 540 21 209 2
217 1 217 -18z m-610 -239 c13 -24 13 -101 1 -134 -7 -18 -19 -26 -45 -29
l-35 -4 -3 81 c-2 44 1 86 6 93 14 19 64 15 76 -7z m568 -13 c9 -19 10 -45 5
-90 l-8 -63 -37 -3 c-41 -3 -41 -4 -53 91 -5 36 -2 55 10 73 22 34 65 30 83
-8z m562 -28 c21 -21 26 -40 12 -40 -5 0 -17 9 -27 20 -10 11 -24 20 -32 20
-7 0 -13 5 -13 10 0 17 39 11 60 -10z m-132 -145 c6 -35 12 -79 12 -96 0 -17
5 -59 11 -93 10 -52 8 -76 -9 -164 -12 -57 -26 -110 -33 -118 -21 -26 -49 -16
-65 23 -19 45 -10 198 12 207 11 4 14 30 14 110 0 59 -4 108 -10 111 -14 9
-13 15 10 53 30 48 44 41 58 -33z m152 7 c-1 -26 -8 -65 -17 -87 -8 -22 -18
-78 -23 -125 l-7 -85 -1 83 c-2 61 4 99 19 145 13 38 19 75 16 95 -4 19 -2 30
4 27 5 -4 9 -27 9 -53z m-1656 -48 c9 -8 16 -29 16 -45 0 -16 5 -29 10 -29 6
0 10 -12 10 -26 0 -14 -4 -23 -10 -19 -6 4 -10 -5 -10 -20 0 -20 4 -26 15 -21
11 4 15 -1 15 -19 0 -20 -5 -25 -27 -26 l-28 -2 27 -4 c23 -4 28 -10 34 -49 7
-52 -4 -211 -17 -236 -12 -22 -42 -23 -59 -3 -7 8 -19 15 -27 15 -10 0 -13 6
-8 17 3 10 6 118 6 240 -1 201 1 223 16 232 10 6 19 11 20 11 1 0 9 -7 17 -16z
m1436 -95 c0 -54 -4 -99 -8 -99 -4 0 -9 48 -10 106 -2 69 1 103 8 99 6 -3 10
-49 10 -106z m-1287 38 c23 -72 22 -133 0 -146 -10 -6 -13 -11 -7 -11 19 0 34
24 35 55 0 26 1 27 9 9 4 -12 28 -52 52 -90 24 -38 48 -75 52 -82 11 -18 -51
13 -81 41 -23 20 -23 20 -23 1 0 -11 16 -46 35 -78 34 -56 34 -58 9 -41 -14 9
-28 14 -31 11 -12 -11 50 -117 85 -146 l37 -31 -32 12 c-90 31 -162 140 -184
279 -13 88 0 270 20 270 4 0 15 -24 24 -53z m492 8 c39 -8 90 -15 115 -16 25
0 54 -4 65 -9 17 -7 14 -11 -25 -28 -25 -12 -77 -24 -115 -28 l-70 -7 35 -16
c24 -10 69 -15 146 -15 92 0 109 -3 95 -13 -9 -7 -34 -18 -56 -25 l-40 -13 43
-3 c24 -2 63 1 87 6 42 9 43 9 49 -21 15 -73 14 -73 -81 -91 -49 -9 -125 -16
-169 -16 -126 0 -145 23 -159 195 -5 65 -1 115 9 115 0 0 33 -7 71 -15z m672
-107 c-3 -7 -5 -2 -5 12 0 14 2 19 5 13 2 -7 2 -19 0 -25z m13 -94 c15 -89 12
-220 -4 -253 -37 -70 -41 -57 -41 122 0 95 1 183 3 197 4 43 31 1 42 -66z
m-1505 66 c8 -13 -34 -38 -70 -42 -43 -4 -39 24 5 39 44 15 57 16 65 3z m1828
-128 c20 -18 25 -96 5 -90 -7 3 -14 15 -14 28 -1 14 -15 36 -33 50 -17 15 -28
30 -24 33 9 10 44 -2 66 -21z m-1809 2 c36 -35 9 -95 -51 -115 l-36 -12 31
-12 c66 -28 72 -43 72 -169 0 -99 -3 -117 -21 -140 -25 -32 -84 -36 -120 -7
-22 18 -24 28 -33 188 -10 194 -8 203 73 255 52 32 64 34 85 12z m1881 -144
c0 -23 -6 -26 -60 -37 -67 -13 -75 -11 -75 22 0 19 7 24 48 33 70 15 87 11 87
-18z m-165 -63 c0 -22 -4 -28 -17 -25 -21 4 -27 29 -18 66 6 26 7 26 21 8 8
-11 14 -33 14 -49z m-65 -48 c9 -9 8 -175 -2 -216 -5 -20 -12 -23 -57 -23 -54
0 -112 23 -130 52 -14 23 16 56 60 64 46 9 33 24 -21 24 -24 0 -46 4 -50 9 -9
15 54 99 78 104 30 7 110 -3 122 -14z m-530 -20 c78 2 94 0 115 -18 38 -30 14
-44 -83 -51 -79 -5 -81 -6 -47 -17 19 -6 56 -14 81 -18 50 -6 89 -28 76 -42
-5 -4 -57 -10 -117 -13 -114 -5 -163 -20 -66 -20 32 0 73 -7 94 -17 l37 -17
-80 -7 c-44 -4 -105 -15 -135 -23 -31 -9 -95 -16 -145 -16 -49 0 -115 -7 -145
-15 -69 -18 -80 -19 -80 -1 0 19 68 45 137 51 95 10 123 15 123 25 0 6 -50 8
-131 3 -107 -5 -131 -4 -127 7 2 7 25 19 51 27 66 19 64 29 -4 25 -67 -4 -89
7 -89 46 0 34 27 62 59 62 14 1 71 9 126 20 73 14 122 17 180 13 44 -4 121 -5
170 -4z m723 -106 c27 -132 27 -145 2 -168 -11 -10 -20 -25 -20 -34 -1 -13 -3
-13 -11 3 -6 10 -14 83 -17 162 -4 120 -3 144 9 144 10 0 21 -32 37 -107z
m-1443 67 c16 -13 16 -15 -1 -27 -10 -7 -33 -13 -53 -13 -39 0 -35 -10 12 -25
50 -16 41 -39 -18 -45 l-50 -5 33 -14 c19 -8 40 -25 49 -38 14 -21 14 -25 -1
-48 -24 -36 -57 -46 -173 -52 l-103 -6 0 50 c0 117 54 208 137 231 50 14 147
9 168 -8z m1305 -29 c0 -5 -7 -24 -15 -42 l-14 -34 -1 36 c0 20 3 39 7 42 9
10 23 9 23 -2z m-300 -190 l0 -59 -35 -6 c-46 -9 -53 -4 -61 49 -9 65 -2 75
51 75 l45 0 0 -59z m-865 -31 l0 -55 -41 -3 c-45 -3 -54 8 -54 75 0 36 10 43
60 40 l35 -2 0 -55z m1172 -171 l6 -96 -64 -6 c-63 -7 -178 6 -208 22 -12 7
-8 15 20 40 41 38 98 55 155 46 49 -7 48 -7 60 90 7 55 8 57 16 30 5 -16 11
-73 15 -126z m-632 123 l50 -8 -70 -16 c-103 -24 -184 -38 -224 -38 -58 0 -23
-18 59 -30 70 -10 248 -6 295 7 17 4 15 0 -9 -26 -60 -63 -146 -76 -391 -57
-134 10 -195 32 -195 70 0 20 9 30 39 46 36 18 145 51 211 64 30 5 165 -1 235
-12z m-751 -33 c92 -25 126 -115 69 -179 -23 -26 -39 -33 -93 -40 -89 -13
-104 -2 -119 86 -7 36 -11 68 -9 70 2 2 17 19 33 38 33 39 54 43 119 25z m716
-199 c-79 -28 -91 -29 -185 -24 -57 4 -124 15 -155 26 l-55 19 150 -6 c83 -3
175 -1 205 4 30 5 71 9 90 9 28 1 18 -5 -50 -28z m30 -109 c22 -7 20 -9 -20
-15 -102 -15 -309 -36 -359 -36 -64 0 -198 23 -161 28 215 27 488 38 540 23z"/>
<path d="M2315 3420 c-26 -29 -32 -127 -11 -168 37 -71 96 -23 96 78 0 92 -43
137 -85 90z"/>
<path d="M3709 3453 c-33 -39 -3 -153 40 -153 39 0 54 115 21 155 -16 20 -44
19 -61 -2z"/>
<path d="M1548 1454 c-5 -4 -8 -85 -8 -181 l0 -173 110 0 c135 0 174 13 196
65 12 29 13 44 4 71 -6 19 -18 38 -26 42 -13 7 -13 13 0 44 19 45 9 85 -28
112 -22 17 -45 21 -134 24 -59 2 -110 0 -114 -4z m197 -109 c0 -30 -1 -30 -57
-33 l-58 -3 0 36 0 36 58 -3 c56 -3 57 -3 57 -33z m13 -132 c4 -27 -29 -43
-89 -43 -38 0 -39 1 -39 35 l0 36 63 -3 c56 -3 62 -5 65 -25z"/>
<path d="M1900 1345 c0 -128 10 -163 58 -208 80 -76 224 -44 268 60 9 21 14
72 14 148 l0 115 -39 0 -39 0 -4 -112 c-4 -126 -14 -152 -64 -168 -38 -13 -76
1 -93 34 -6 11 -12 71 -13 131 l-3 110 -42 3 -43 3 0 -116z"/>
<path d="M2355 1446 c-62 -27 -83 -100 -44 -150 14 -18 43 -32 92 -47 85 -25
106 -41 87 -63 -20 -25 -77 -20 -104 9 -18 19 -33 25 -65 25 -22 0 -41 -3 -41
-6 0 -23 38 -77 67 -95 68 -42 194 -24 224 32 6 12 11 37 11 56 0 51 -33 80
-121 106 -93 27 -108 55 -39 72 21 5 33 1 53 -19 25 -25 87 -37 99 -18 10 16
-25 73 -56 92 -39 23 -117 26 -163 6z"/>
<path d="M2654 1350 l76 -109 0 -71 0 -70 45 0 45 0 0 68 0 68 75 107 c41 60
75 110 75 113 0 2 -21 4 -47 4 l-48 0 -45 -70 c-25 -38 -48 -70 -51 -70 -3 0
-27 32 -53 70 l-46 70 -51 0 -51 0 76 -110z"/>
<path d="M3040 1281 l0 -181 105 0 c69 0 118 5 140 14 63 27 81 110 34 157
-18 18 -18 21 -3 53 20 42 10 81 -30 110 -22 17 -46 21 -137 24 l-109 4 0
-181z m195 64 c0 -30 -1 -30 -57 -33 l-58 -3 0 36 0 36 58 -3 c56 -3 57 -3 57
-33z m13 -132 c4 -28 -34 -45 -87 -41 -33 3 -36 6 -39 36 l-3 33 63 -3 c57 -3
63 -5 66 -25z"/>
<path d="M3507 1453 c-9 -15 -147 -342 -147 -347 0 -3 20 -6 44 -6 39 0 45 3
56 30 12 30 12 30 97 30 l85 0 11 -30 c10 -27 15 -30 58 -30 l48 0 -77 178
-77 177 -47 3 c-25 2 -48 -1 -51 -5z m82 -170 l21 -53 -55 0 -55 0 25 56 c14
31 25 59 25 62 0 16 21 -19 39 -65z"/>
<path d="M3880 1449 c-64 -26 -112 -98 -112 -170 0 -149 167 -234 299 -153
l48 30 3 77 3 77 -91 0 -90 0 0 -35 0 -35 55 0 c47 0 55 -3 55 -18 0 -19 -26
-36 -68 -45 -40 -9 -92 12 -112 46 -32 51 -23 101 24 139 27 22 104 23 134 3
19 -14 25 -14 57 3 l36 18 -23 21 c-13 12 -36 29 -53 37 -34 18 -126 20 -165
5z"/>
<path d="M4233 1440 c-38 -23 -53 -48 -53 -88 0 -49 33 -79 113 -103 85 -25
106 -41 87 -63 -20 -25 -77 -20 -104 9 -18 19 -33 25 -65 25 -22 0 -41 -3 -41
-6 0 -3 7 -21 16 -40 29 -62 117 -95 195 -74 61 17 89 49 89 104 0 57 -33 86
-125 111 -87 24 -101 54 -33 70 21 5 33 1 53 -19 35 -35 95 -37 95 -3 0 30
-25 64 -60 82 -42 22 -128 19 -167 -5z"/>
</g>
</svg>
